Coordinates
version=1
nRows=9
nColumns=36
inDegrees=yes

Units are S.I. units (second, meters, Newtons, ...)
If the header above contains a line with 'inDegrees', this indicates whether rotational values are in degrees (yes) or radians (no).

endheader
time	pelvis_tilt	pelvis_list	pelvis_rotation	pelvis_tx	pelvis_ty	pelvis_tz	hip_flexion_r	hip_adduction_r	hip_rotation_r	knee_angle_r	knee_angle_r_beta	ankle_angle_r	subtalar_angle_r	mtp_angle_r	hip_flexion_l	hip_adduction_l	hip_rotation_l	knee_angle_l	knee_angle_l_beta	ankle_angle_l	subtalar_angle_l	mtp_angle_l	lumbar_extension	lumbar_bending	lumbar_rotation	arm_flex_r	arm_add_r	arm_rot_r	elbow_flex_r	pro_sup_r	arm_flex_l	arm_add_l	arm_rot_l	elbow_flex_l	pro_sup_l
      8.91666670	     -6.23685117	      3.63283431	     -7.33124865	      0.19257442	      1.07720929	      0.07521285	      6.30063418	      3.29503514	     -3.38237557	      5.52905916	      0.09650029	     10.54721372	     -1.74036257	     -7.49999987	     13.77747269	     -3.65256218	      4.38837521	     12.12148897	      0.21155989	      7.69727427	      7.04564513	     -7.49999987	      4.07101459	      0.17502709	     -5.74331532	     76.28531708	      1.15390589	     67.79843036	    116.30098787	     81.66223466	     71.39315956	      4.30416175	     69.12632788	    119.26625002	     79.26627128
      8.93333330	     -5.49339576	      3.56634534	     -7.33094393	      0.19183604	      1.07742433	      0.07522634	      5.39735649	      3.31083092	     -3.42156861	      5.41023585	      0.09442643	     10.64671153	     -1.99267528	     -7.49999987	     12.98805578	     -3.65252062	      4.10671309	     12.12641252	      0.21164582	      7.93458271	      7.43094695	     -7.49999987	      3.16208293	      0.18171961	     -6.28346936	     78.01651230	      1.85120486	     67.83329042	    116.61414501	     80.90766122	     73.96274633	      4.60599944	     70.40345631	    121.21315729	     78.84259298
      8.95000000	     -5.04757985	      3.50631459	     -7.26222649	      0.19239430	      1.08083934	      0.07436939	      4.83824491	      3.31042583	     -3.37333803	      5.29739566	      0.09245700	     10.85710796	     -1.92947683	     -7.49999987	     12.48402008	     -3.62694856	      4.08283033	     12.06935131	      0.21064992	      7.94276632	      7.53448977	     -7.49999987	      2.75789148	      0.20725069	     -6.61891592	     79.00658847	      2.52172594	     68.14247169	    116.36174470	     80.30803208	     75.32059047	      4.78148780	     71.01496456	    122.18111646	     78.41573576
      8.96666670	     -4.72767295	      3.47159393	     -7.34774694	      0.19212723	      1.07929400	      0.07454162	      4.49552438	      3.29081583	     -3.24758193	      5.26721461	      0.09193024	     11.06344895	     -1.88495988	     -7.49999987	     12.07392324	     -3.62315212	      3.94701618	     11.96572523	      0.20884130	      7.99620655	      7.68165884	     -7.49999987	      2.48649290	      0.27309798	     -6.64824170	     80.04057886	      3.08537102	     68.46706781	    116.23757431	     80.40998139	     76.42635111	      5.84581800	     71.46922483	    123.32156762	     78.54160930
      8.98333330	     -4.42682039	      3.46130167	     -7.35673569	      0.19323089	      1.07761854	      0.07419892	      4.15356205	      3.23157651	     -3.29302484	      5.35392911	      0.09344369	     11.55422977	     -1.61264525	     -7.49999987	     11.65213793	     -3.58072408	      3.96464440	     11.89873719	      0.20767214	      8.09058809	      7.76797639	     -7.49999987	      2.10730318	      0.33778893	     -7.09849472	     81.16326446	      3.87593565	     68.54662598	    115.76494361	     84.08365147	     77.66314485	      6.09248870	     71.61691749	    124.91357523	     81.62959366
      9.00000000	     -4.42420268	      3.45084744	     -7.38975665	      0.19324173	      1.07954638	      0.07438086	      4.26249930	      3.21011848	     -3.07514131	      5.63612906	      0.09836901	     11.70610518	     -1.93033124	     -7.49999987	     11.58331862	     -3.57722980	      3.88822427	     11.91810579	      0.20801019	      8.15684137	      7.70941104	     -7.49999987	      2.12866618	      0.33657998	     -7.54060314	     81.65421977	      4.01529444	     68.87182807	    116.24803171	     82.75875493	     78.24410372	      5.99886299	     71.92898922	    125.88671762	     80.26681781
      9.01666670	     -4.11115865	      3.42081346	     -7.69913516	      0.19585472	      1.07501628	      0.07425140	      3.98964178	      3.17183815	     -2.68127016	      6.07034421	      0.10594749	     11.89113926	     -2.16238661	     -7.49999987	     11.02899002	     -3.62231250	      3.49374669	     11.78303181	      0.20565270	      8.44326855	      7.97701161	     -7.49999987	      1.49972244	      0.50268412	     -8.11618342	     82.70790142	      4.23721279	     69.06987418	    115.35611535	     82.19639162	     79.62053928	      5.75872616	     72.04269175	    125.89420533	     79.32948803
      9.03333330	     -4.08954294	      3.45695451	     -7.73321081	      0.19314486	      1.08302063	      0.07410215	      4.07300193	      3.09060131	     -2.88626933	      6.22384020	      0.10862650	     12.04626684	     -1.92652788	     -7.49999987	     10.95915439	     -3.54015416	      3.55803830	     11.65963662	      0.20349905	      8.33115435	      7.64874580	     -7.49999987	      1.30508188	      0.53363636	     -7.81966628	     83.09069446	      4.03159840	     69.21631927	    115.83313370	     83.05758233	     80.05034064	      6.23987971	     72.38672798	    125.85916650	     78.85915491
      9.05000000	     -3.92987489	      3.41299945	     -7.79560836	      0.19443318	      1.07755217	      0.07433519	      3.97470741	      3.12632098	     -2.74199460	      6.37555139	      0.11127436	     11.94051106	     -2.23759439	     -7.49999987	     10.68256649	     -3.59619458	      3.30975923	     11.53902508	      0.20139398	      8.53194027	      7.95657511	     -7.49999987	      0.91340573	      0.72141299	     -7.90981325	     83.83712896	      3.93792027	     69.53415276	    114.67581793	     82.21417433	     80.92788298	      6.73683632	     72.44278697	    126.41688784	     77.94129138
